<svg xmlns="http://www.w3.org/2000/svg" viewBox="0 0 143 143"><defs><style>.cls-1{fill:#47745b;}.cls-2{fill:none;stroke:#f2ede4;stroke-linecap:round;stroke-linejoin:round;stroke-width:1.3px;}</style></defs><g id="Backgrounds"><rect class="cls-1" width="143" height="143"/></g><g id="Shoe_Stroke" data-name="Shoe Stroke"><path class="cls-2" d="M77.48,59.41c2.66,6,9.37,13.57,9.37,13.57,8,9.43,11.2,9.65,14.4,11.58A5,5,0,0,1,103.54,90l-3.16,4.43c-2.06.69-15.51,1.53-25.63-4.8S39.34,66.77,39.34,66.77L53.62,48.11c.6,1.69,2.83,9.47,9.05,12.1S77.48,59.41,77.48,59.41Z"/><path class="cls-2" d="M78.62,53.52c-2.19,2.06-1.14,5.89-1.14,5.89"/><line class="cls-2" x1="58.81" y1="73.15" x2="42.53" y2="62.6"/><path class="cls-2" d="M51.75,54.77c5.91,7.83.83,14.34.83,14.34"/><path class="cls-2" d="M62.4,75.33l16.19,10.2a45,45,0,0,0,25,4.46"/><line class="cls-2" x1="82.97" y1="65" x2="77.23" y2="68.67"/><line class="cls-2" x1="85.76" y1="68.67" x2="80.54" y2="72.11"/><line class="cls-2" x1="88.26" y1="72.11" x2="83.15" y2="75.33"/></g></svg>