<svg xmlns="http://www.w3.org/2000/svg" viewBox="0 0 143 143"><defs><style>.cls-1{fill:#47745b;}.cls-2{fill:none;stroke:#efece8;stroke-linecap:round;stroke-linejoin:round;stroke-width:1.3px;}</style></defs><g id="Backgrounds"><rect class="cls-1" width="143" height="143"/></g><g id="Shirt_Stroke" data-name="Shirt Stroke"><path class="cls-2" d="M86.21,68.57l7.57,1.79,3.73-7.87-7-6.46s-4.27,3.81-4.27,8.42V94.06H56.79V64.45c0-4.61-4.27-8.42-4.27-8.42l-7,6.46,3.73,7.87,7.57-1.79"/><path class="cls-2" d="M90.48,56l-10.79-4.2a15.62,15.62,0,0,1-16.38,0L52.52,56"/><path class="cls-2" d="M79.69,51.83s-.33,8.69-8.19,8.69-8.19-8.69-8.19-8.69"/><polyline class="cls-2" points="78.46 56.33 71.5 50.17 64.54 56.33"/><line class="cls-2" x1="71.5" y1="50.18" x2="71.5" y2="47.5"/><path class="cls-2" d="M68.22,44.22A3.28,3.28,0,1,1,71.5,47.5"/></g></svg>