<svg xmlns="http://www.w3.org/2000/svg" viewBox="0 0 68.47 55.63"><defs><style>.cls-1{fill:none;stroke:#47745b;stroke-linecap:round;stroke-linejoin:round;stroke-width:1.3px;}</style></defs><g id="Shoe_Stroke" data-name="Shoe Stroke"><path class="cls-1" d="M39.68,16.8c2.43,5.44,8.54,12.36,8.54,12.36,7.25,8.6,10.21,8.8,13.13,10.56a4.57,4.57,0,0,1,2.08,4.94l-2.88,4.05c-1.88.62-14.14,1.38-23.35-4.38S4.93,23.5,4.93,23.5l13-17c.55,1.54,2.57,8.63,8.24,11S39.68,16.8,39.68,16.8Z"/><path class="cls-1" d="M40.73,11.43c-2,1.87-1,5.37-1,5.37"/><line class="cls-1" x1="22.67" y1="29.32" x2="7.83" y2="19.7"/><path class="cls-1" d="M16.23,12.57c5.39,7.13.76,13.07.76,13.07"/><path class="cls-1" d="M25.94,31.31l14.76,9.3a40.87,40.87,0,0,0,22.73,4"/><line class="cls-1" x1="44.69" y1="21.89" x2="39.45" y2="25.24"/><line class="cls-1" x1="47.22" y1="25.24" x2="42.47" y2="28.37"/><line class="cls-1" x1="49.51" y1="28.37" x2="44.85" y2="31.31"/></g></svg>