<svg xmlns="http://www.w3.org/2000/svg" viewBox="0 0 77.78 71.67"><defs><style>.cls-1{fill:none;stroke:#47745b;stroke-linecap:round;stroke-linejoin:round;stroke-width:1.3px;}</style></defs><g id="Shirt_Stroke" data-name="Shirt Stroke"><path class="cls-1" d="M56.1,37.09,65,39.18,69.31,30l-8.22-7.55s-5,4.45-5,9.84V66.9H21.68V32.26c0-5.39-5-9.84-5-9.84L8.47,30l4.36,9.21,8.85-2.09"/><path class="cls-1" d="M61.09,22.42,48.47,17.5a19.13,19.13,0,0,1-9.58,2.72,19.13,19.13,0,0,1-9.58-2.72L16.69,22.42"/><path class="cls-1" d="M48.47,17.5s-.39,10.16-9.58,10.16S29.31,17.5,29.31,17.5"/><polyline class="cls-1" points="47.03 22.77 38.89 15.57 30.74 22.77"/><line class="cls-1" x1="38.89" y1="15.57" x2="38.89" y2="12.44"/><path class="cls-1" d="M35.05,8.6a3.84,3.84,0,1,1,3.84,3.84"/></g></svg>