<svg xmlns="http://www.w3.org/2000/svg" viewBox="0 0 678.6 686.84"><defs><style>.cls-1{fill:#fbb03b;}.cls-2{fill:#f7931e;}.cls-3{fill:#f15a24;}.cls-4{fill:#ed1c24;}.cls-5{fill:#c1272d;}.cls-6{fill:none;}.cls-10,.cls-6,.cls-7,.cls-8,.cls-9{stroke:#000;stroke-linejoin:round;stroke-width:21px;}.cls-7{fill:#8c8372;}.cls-8{fill:#c6d6e0;}.cls-9{fill:#fff;}.cls-10{fill:#494641;}.cls-11{fill:#754c24;}.cls-12{fill:#47745b;}</style></defs><g id="Circle_Sunset" data-name="Circle / Sunset"><path class="cls-1" d="M581.11,140.25H97.49a315.84,315.84,0,0,1,483.62,0Z"/><path class="cls-2" d="M642,252.91H36.63A315,315,0,0,1,97.49,140.25H581.11A315,315,0,0,1,642,252.91Z"/><path class="cls-3" d="M655.13,343.42q0,11.16-.76,22.15H24.24q-.76-11-.77-22.15a315.9,315.9,0,0,1,13.16-90.51H642A315.9,315.9,0,0,1,655.13,343.42Z"/><path class="cls-4" d="M654.37,365.57A313.9,313.9,0,0,1,625,478.22H53.61A313.52,313.52,0,0,1,24.24,365.57Z"/><path class="cls-5" d="M625,478.22a316.48,316.48,0,0,1-78.42,103.5l-59.42-103.5Z"/><path class="cls-6" d="M655.13,343.42q0,11.16-.76,22.15a315.15,315.15,0,0,1-107.8,216.15l-59.42-103.5-26.87-46.81-37.8-65.84-21.09-36.74a15.38,15.38,0,0,0-26.68,0l-21.09,36.74-32.73,57-23.71-41.3-9-15.7L223.49,252.91l-6.68-11.63a15.37,15.37,0,0,0-26.67,0l-6.68,11.63L118.79,365.57l-15.48,27h0L54.12,478.22l-.28.49c-.08-.16-.15-.33-.23-.49A313.52,313.52,0,0,1,24.24,365.57q-.76-11-.77-22.15a315.83,315.83,0,1,1,631.66,0Z"/></g><g id="Mountains"><path class="cls-7" d="M546.57,581.72a315.77,315.77,0,0,1-100.44,59L329.32,437.25q72.48,52.88,131-5.84Z"/><path class="cls-8" d="M460.28,431.41q-58.48,58.72-131,5.84l-8.43-14.68,53.82-93.74a15.38,15.38,0,0,1,26.68,0Z"/><path class="cls-9" d="M297.18,381.27c-8.25-5.94-41.86-28.13-83.64-28.13-29.46,0-39.67,14.6-67.6,28.38-22.63,11.17-37.72,11.36-42.63,11l86.83-151.26a15.37,15.37,0,0,1,26.67,0Z"/><path class="cls-10" d="M446.13,640.72A315,315,0,0,1,339.3,659.25c-126,0-234.79-73.8-285.46-180.54l49.46-86.17h0c4.91.34,20,.15,42.63-11,27.93-13.78,38.14-28.38,67.6-28.38,41.78,0,75.39,22.19,83.64,28.13l23.71,41.3,8.43,14.68Z"/></g><g id="Tree"><path class="cls-5" d="M53.61,478.22h.51l-.28.49C53.76,478.55,53.69,478.38,53.61,478.22Z"/><path class="cls-11" d="M500,239.4l42,.45V585.62l-3.88,3.15c-3.59,2.91-7.24,5.75-10.86,8.43-5.24,3.9-10.31,5.07-14.39,6l-12.87,3Z"/><path d="M510.5,250l21,.23V580.62q-5.16,4.18-10.5,8.15c-3.44,2.56-6.75,3.35-10.5,4.22V250m-21-21.23V619.4l25.74-6c4.5-1,11.29-2.61,18.3-7.83,3.71-2.75,7.49-5.68,11.19-8.68l7.77-6.31V229.46l-20.77-.22-21-.23-21.23-.23Z"/><path class="cls-12" d="M587.17,504.47a14,14,0,0,1-8.8-3.14L521,454.56l-57.36,46.77a13.93,13.93,0,0,1-19.61-2l-8.93-10.95a14,14,0,0,1,2-19.61L457.74,452,445.39,436.8a13.93,13.93,0,0,1,2-19.61l12.7-10.35-11.41-14a14,14,0,0,1,2-19.6l13.59-11.08-10.82-13.27a14,14,0,0,1,2-19.61l12.68-10.34-11.43-14a13.93,13.93,0,0,1,2-19.6l13.12-10.71L460.67,261a13.94,13.94,0,0,1,2-19.61l14.57-11.88L467.08,217a13.91,13.91,0,0,1,2-19.6l38.67-31.53a21,21,0,0,1,26.54,0l38.66,31.53a13.93,13.93,0,0,1,2,19.6l-10.17,12.47,14.61,11.91a14,14,0,0,1,2.09,19.48l-11.07,13.9,12.94,10.55a13.94,13.94,0,0,1,2,19.6l-11.42,14,12.67,10.34a14,14,0,0,1,2,19.61l-10.82,13.27,13.58,11.08a14,14,0,0,1,2,19.6l-11.41,14,12.7,10.35a13.94,13.94,0,0,1,2,19.61L584.27,452l20.64,16.83a13.93,13.93,0,0,1,2,19.61L598,499.34a13.86,13.86,0,0,1-10.8,5.13Z"/><path d="M521,171.66a10.45,10.45,0,0,1,6.63,2.37l38.67,31.52a3.44,3.44,0,0,1,.49,4.84l-14.63,17.94a3.43,3.43,0,0,0,.49,4.83l20.08,16.37a3.44,3.44,0,0,1,.52,4.81L557.83,273.7a3.43,3.43,0,0,0,.52,4.8l18.35,15a3.44,3.44,0,0,1,.49,4.84L561.3,317.78a3.45,3.45,0,0,0,.5,4.84L580,337.42a3.43,3.43,0,0,1,.49,4.83L565.16,361a3.43,3.43,0,0,0,.49,4.83l19.06,15.54a3.44,3.44,0,0,1,.49,4.84l-15.87,19.46a3.44,3.44,0,0,0,.49,4.84L588,425.33a3.43,3.43,0,0,1,.49,4.83l-16.82,20.63a3.44,3.44,0,0,0,.49,4.84l26.11,21.29a3.44,3.44,0,0,1,.5,4.83l-8.93,10.95a3.42,3.42,0,0,1-2.67,1.27,3.49,3.49,0,0,1-2.17-.77l-61.82-50.42a3.44,3.44,0,0,0-4.34,0L457,493.2a3.43,3.43,0,0,1-4.83-.5l-8.93-10.95a3.43,3.43,0,0,1,.49-4.83l26.11-21.29a3.45,3.45,0,0,0,.5-4.84l-16.82-20.63a3.43,3.43,0,0,1,.49-4.83l18.17-14.82a3.43,3.43,0,0,0,.5-4.84l-15.88-19.46a3.44,3.44,0,0,1,.49-4.84l19.07-15.54a3.43,3.43,0,0,0,.49-4.83l-15.29-18.75a3.43,3.43,0,0,1,.49-4.83l18.16-14.8a3.44,3.44,0,0,0,.49-4.84L464.82,298.3a3.44,3.44,0,0,1,.49-4.84l18.6-15.16a3.44,3.44,0,0,0,.49-4.84l-15.59-19.12a3.43,3.43,0,0,1,.49-4.83l20.05-16.35a3.43,3.43,0,0,0,.49-4.83l-14.62-17.94a3.44,3.44,0,0,1,.49-4.84L514.37,174a10.45,10.45,0,0,1,6.64-2.37m0-21a31.62,31.62,0,0,0-19.91,7.09l-38.66,31.53a24.44,24.44,0,0,0-3.5,34.38l3.53,4.32L456,233.23a24.47,24.47,0,0,0-3.5,34.38l4.5,5.51-5,4.07a24.47,24.47,0,0,0-3.5,34.38l4.79,5.87-4.54,3.7a24.46,24.46,0,0,0-3.49,34.38l4.18,5.14L444,365.1a24.46,24.46,0,0,0-3.49,34.38l4.77,5.85-4.56,3.73a24.45,24.45,0,0,0-3.5,34.37l5.72,7-12.5,10.19A24.47,24.47,0,0,0,427,495l8.93,11a24.43,24.43,0,0,0,34.38,3.5L521,468.11l50.72,41.36a24.43,24.43,0,0,0,34.38-3.5L615,495a24.45,24.45,0,0,0-3.5-34.38L599,450.45l5.72-7a24.46,24.46,0,0,0-3.49-34.38l-4.57-3.73,4.78-5.85A24.47,24.47,0,0,0,598,365.1l-5.45-4.44,4.18-5.14a24.46,24.46,0,0,0-3.49-34.38l-4.54-3.7,4.79-5.87a24.46,24.46,0,0,0-3.5-34.38l-4.89-4,4.6-5.78A24.51,24.51,0,0,0,586,233.26L579.55,228l3.52-4.32a24.42,24.42,0,0,0-3.49-34.38l-38.67-31.53a31.57,31.57,0,0,0-19.9-7.09Z"/></g></svg>